<svg width="317" height="496" viewBox="0 0 317 496" fill="none" xmlns="http://www.w3.org/2000/svg">
<rect y="262" width="317" height="234" rx="16" fill="#F5F5F5"/>
<rect width="317" height="234" rx="16" fill="#F5F5F5"/>
<g opacity="0.5">
<rect x="116.642" y="65" width="84.6384" height="84.6384" rx="12.0912" fill="#D4D4D4"/>
<path d="M168.87 103.084C168.726 103.443 168.502 103.764 168.215 104.023C167.927 104.281 167.584 104.471 167.212 104.576C166.84 104.682 166.449 104.701 166.068 104.632C165.688 104.562 165.328 104.407 165.017 104.177C158.59 99.3458 153.264 103.869 153.044 104.063C152.739 104.324 152.376 104.509 151.985 104.602C151.594 104.695 151.186 104.694 150.796 104.599C150.405 104.503 150.043 104.316 149.74 104.052C149.436 103.789 149.2 103.457 149.05 103.084C148.715 102.229 146.802 101.515 144.447 101.083C143.61 100.933 142.719 100.809 141.82 100.739C141.855 100.785 141.894 100.83 141.935 100.871C144.818 103.957 150.928 112.236 145.832 122.64C147.967 121.975 149.877 120.734 151.351 119.052C151.6 118.777 151.907 118.561 152.249 118.418C152.591 118.275 152.96 118.21 153.33 118.226C153.7 118.242 154.063 118.339 154.391 118.511C154.72 118.682 155.006 118.924 155.231 119.219C155.669 119.792 156.233 120.255 156.88 120.575C157.526 120.895 158.237 121.061 158.958 121.062C159.679 121.063 160.391 120.898 161.038 120.58C161.685 120.262 162.25 119.799 162.69 119.228C162.916 118.936 163.203 118.696 163.531 118.527C163.859 118.358 164.221 118.263 164.59 118.248C164.959 118.234 165.327 118.301 165.667 118.444C166.008 118.588 166.313 118.804 166.56 119.078C168.031 120.751 169.935 121.987 172.062 122.649C167.007 112.041 173.149 103.971 176.215 100.712C174.01 100.814 169.335 101.698 168.87 103.084ZM153.741 114.132C153.508 114.143 153.279 114.062 153.105 113.907C152.93 113.753 152.823 113.536 152.806 113.303C152.716 112.016 152.33 110.766 151.677 109.653C151.62 109.552 151.583 109.441 151.568 109.326C151.554 109.211 151.563 109.095 151.594 108.983C151.625 108.872 151.678 108.767 151.75 108.676C151.822 108.586 151.911 108.51 152.012 108.454C153.656 107.573 154.536 112.232 154.569 113.197C154.577 113.313 154.561 113.429 154.524 113.539C154.486 113.649 154.427 113.75 154.35 113.837C154.273 113.924 154.179 113.995 154.075 114.045C153.97 114.096 153.857 114.125 153.741 114.132ZM166.269 109.653C165.611 110.769 165.216 112.02 165.114 113.312C165.098 113.535 164.998 113.743 164.835 113.895C164.671 114.047 164.456 114.132 164.233 114.132C162.271 114.031 164.117 109.872 164.726 108.789C164.843 108.588 165.034 108.441 165.258 108.38C165.482 108.319 165.721 108.348 165.923 108.462C166.126 108.575 166.275 108.763 166.34 108.986C166.405 109.209 166.38 109.449 166.269 109.653Z" fill="white"/>
<path d="M177.185 124.765C174.989 124.97 172.776 124.661 170.721 123.862C168.666 123.063 166.825 121.796 165.344 120.163C165.257 120.066 165.151 119.989 165.031 119.938C164.911 119.888 164.782 119.864 164.652 119.869C164.523 119.874 164.396 119.908 164.28 119.968C164.165 120.028 164.065 120.112 163.986 120.216C163.393 120.987 162.63 121.611 161.757 122.04C160.884 122.469 159.924 122.691 158.952 122.689C157.979 122.687 157.02 122.462 156.148 122.03C155.277 121.598 154.516 120.971 153.926 120.198C153.846 120.097 153.744 120.015 153.629 119.956C153.514 119.898 153.388 119.865 153.259 119.86C153.13 119.855 153.002 119.878 152.882 119.927C152.763 119.976 152.656 120.051 152.568 120.145C151.089 121.785 149.245 123.054 147.185 123.849C145.125 124.644 142.906 124.943 140.709 124.721C140.557 124.696 140.4 124.712 140.256 124.767C140.112 124.822 139.984 124.914 139.887 125.034C139.789 125.154 139.725 125.297 139.701 125.45C139.677 125.602 139.693 125.758 139.748 125.903C139.775 125.991 142.984 133.908 151.422 133.741C151.615 133.74 151.802 133.671 151.951 133.547C152.198 133.353 158.052 128.803 166.023 133.635C166.254 133.753 166.515 133.799 166.772 133.767C174.99 133.767 178.12 126.035 178.155 125.955C178.209 125.81 178.224 125.653 178.198 125.5C178.173 125.347 178.108 125.203 178.01 125.083C177.912 124.963 177.784 124.87 177.64 124.815C177.495 124.759 177.338 124.742 177.185 124.765Z" fill="white"/>
<path d="M179.539 97.5647C171.392 87.6368 163.325 89.7264 160.027 91.2164C160.055 90.6843 160.043 90.1509 159.992 89.6206C161.152 89.9643 162.393 89.921 163.527 89.4971C166.352 88.2324 167.447 85.9873 168.553 82.4083C168.609 82.1944 168.585 81.9672 168.484 81.7703C168.383 81.5735 168.213 81.4207 168.006 81.3414C165.798 80.4725 160.623 80.3403 158.801 85.1064C158.352 84.052 157.784 83.0521 157.109 82.1261C157.039 82.0338 156.951 81.9562 156.851 81.8977C156.751 81.8393 156.641 81.8011 156.526 81.7854C156.411 81.7697 156.294 81.7768 156.182 81.8062C156.07 81.8357 155.965 81.887 155.873 81.9571C155.781 82.0273 155.703 82.1149 155.645 82.215C155.587 82.3151 155.549 82.4258 155.534 82.5406C155.518 82.6553 155.525 82.7721 155.555 82.884C155.585 82.996 155.636 83.101 155.707 83.193C157.036 85.0954 157.894 87.2863 158.211 89.5853C158.28 90.1823 158.292 90.7847 158.246 91.384C155.204 89.8938 146.837 87.2664 138.381 97.5646C138.276 97.695 138.21 97.8524 138.191 98.0187C138.173 98.185 138.201 98.3533 138.274 98.5039C138.347 98.6545 138.462 98.7813 138.604 98.8694C138.746 98.9576 138.91 99.0035 139.078 99.0018C141.679 98.9577 149.394 99.4868 150.566 102.493C150.621 102.623 150.705 102.737 150.811 102.828C150.918 102.92 151.045 102.984 151.181 103.018C151.317 103.051 151.459 103.052 151.596 103.021C151.733 102.99 151.86 102.927 151.968 102.837C152.233 102.599 158.519 97.2562 166.005 102.872C166.113 102.953 166.239 103.008 166.372 103.032C166.505 103.057 166.642 103.051 166.772 103.014C166.903 102.977 167.023 102.911 167.124 102.821C167.224 102.731 167.303 102.619 167.354 102.493C168.526 99.4779 176.039 98.9489 178.842 99.0018C179.01 99.0031 179.174 98.957 179.316 98.8688C179.458 98.7805 179.572 98.6538 179.645 98.5034C179.718 98.3529 179.747 98.1849 179.728 98.0187C179.709 97.8525 179.644 97.6951 179.539 97.5647Z" fill="white"/>
</g>
<rect x="55" y="180.638" width="123.609" height="123.609" rx="12.8425" fill="#21A890"/>
<g clip-path="url(#clip0_365_8482)">
<path d="M138.225 240.913C138.225 237.498 136.334 234.548 133.568 232.969C136.212 232.296 138.225 229.994 138.225 227.142C138.225 226.169 137.981 225.257 137.558 224.468C136.01 219.088 132.527 214.608 127.894 211.842H105.715C101.075 214.608 97.5992 219.088 96.0447 224.468C95.6285 225.263 95.3837 226.175 95.3837 227.142C95.3837 229.988 97.3972 232.289 100.041 232.963C97.2748 234.548 95.3837 237.498 95.3837 240.913C95.3837 244.334 97.2748 247.278 100.047 248.863C97.3911 249.53 95.3837 251.825 95.3837 254.683V285.285C95.3837 288.663 98.1255 291.405 101.504 291.405H132.105C135.483 291.405 138.225 288.663 138.225 285.285V254.683C138.225 251.819 136.218 249.524 133.562 248.857C136.334 247.278 138.225 244.334 138.225 240.913Z" fill="white"/>
<path d="M125.985 193.481H107.624C105.935 193.481 104.564 194.852 104.564 196.541V202.661C104.564 204.351 105.935 205.721 107.624 205.721H125.985C127.674 205.721 129.045 204.351 129.045 202.661V196.541C129.045 194.852 127.674 193.481 125.985 193.481Z" fill="white"/>
</g>
<path fill-rule="evenodd" clip-rule="evenodd" d="M174.466 308.756L154.736 271.679L195.931 284.275L179.602 292.964L179.405 293.437L174.466 308.756Z" fill="white"/>
<path fill-rule="evenodd" clip-rule="evenodd" d="M159.89 275.776L173.701 301.73L177.043 291.42L177.242 290.9L188.922 284.71L159.89 275.776Z" fill="#43C4A8"/>
<rect x="185.923" y="289.444" width="77" height="25" rx="12.5" fill="#43C4A8"/>
<path d="M203.042 307.444V297.262H206.671C207.463 297.262 208.119 297.406 208.64 297.695C209.16 297.983 209.549 298.377 209.808 298.878C210.066 299.375 210.196 299.935 210.196 300.558C210.196 301.185 210.065 301.748 209.803 302.249C209.544 302.746 209.153 303.14 208.63 303.432C208.109 303.72 207.455 303.864 206.666 303.864H204.17V302.562H206.527C207.027 302.562 207.433 302.476 207.745 302.303C208.056 302.128 208.285 301.889 208.431 301.587C208.577 301.286 208.65 300.943 208.65 300.558C208.65 300.174 208.577 299.832 208.431 299.534C208.285 299.236 208.055 299.002 207.74 298.833C207.428 298.664 207.017 298.58 206.507 298.58H204.578V307.444H203.042ZM213.364 297.262V307.444H211.877V297.262H213.364ZM217.586 307.613C217.102 307.613 216.665 307.523 216.273 307.344C215.882 307.162 215.572 306.899 215.344 306.554C215.118 306.209 215.006 305.787 215.006 305.286C215.006 304.855 215.089 304.501 215.254 304.222C215.42 303.944 215.644 303.723 215.925 303.561C216.207 303.399 216.522 303.276 216.87 303.193C217.218 303.11 217.573 303.047 217.934 303.004C218.391 302.951 218.763 302.908 219.048 302.875C219.333 302.838 219.54 302.78 219.669 302.701C219.798 302.621 219.863 302.492 219.863 302.313V302.278C219.863 301.844 219.74 301.508 219.495 301.269C219.253 301.03 218.892 300.911 218.411 300.911C217.911 300.911 217.516 301.022 217.228 301.244C216.943 301.463 216.746 301.707 216.636 301.975L215.239 301.657C215.405 301.193 215.647 300.818 215.965 300.533C216.287 300.245 216.656 300.036 217.074 299.907C217.492 299.774 217.931 299.708 218.391 299.708C218.696 299.708 219.019 299.745 219.361 299.817C219.706 299.887 220.027 300.016 220.325 300.205C220.627 300.394 220.874 300.664 221.066 301.016C221.258 301.364 221.354 301.816 221.354 302.373V307.444H219.903V306.4H219.843C219.747 306.592 219.603 306.781 219.411 306.967C219.218 307.152 218.971 307.306 218.67 307.429C218.368 307.552 218.007 307.613 217.586 307.613ZM217.909 306.42C218.32 306.42 218.671 306.338 218.963 306.176C219.258 306.014 219.482 305.802 219.634 305.54C219.79 305.275 219.868 304.991 219.868 304.69V303.705C219.815 303.758 219.712 303.808 219.56 303.854C219.411 303.897 219.24 303.936 219.048 303.969C218.855 303.999 218.668 304.027 218.486 304.053C218.304 304.076 218.151 304.096 218.028 304.113C217.74 304.149 217.477 304.211 217.238 304.297C217.003 304.383 216.814 304.507 216.671 304.67C216.532 304.829 216.462 305.041 216.462 305.306C216.462 305.674 216.598 305.952 216.87 306.141C217.142 306.327 217.488 306.42 217.909 306.42ZM229.057 301.672L227.709 301.91C227.653 301.738 227.564 301.574 227.441 301.418C227.322 301.263 227.159 301.135 226.954 301.035C226.748 300.936 226.491 300.886 226.183 300.886C225.762 300.886 225.411 300.981 225.129 301.17C224.847 301.355 224.707 301.596 224.707 301.891C224.707 302.146 224.801 302.351 224.99 302.507C225.179 302.663 225.484 302.79 225.905 302.89L227.118 303.168C227.82 303.331 228.344 303.581 228.689 303.919C229.033 304.257 229.206 304.696 229.206 305.236C229.206 305.694 229.073 306.102 228.808 306.459C228.546 306.814 228.18 307.093 227.709 307.295C227.242 307.497 226.7 307.598 226.084 307.598C225.229 307.598 224.531 307.416 223.991 307.051C223.45 306.683 223.119 306.161 222.996 305.485L224.433 305.266C224.523 305.641 224.707 305.924 224.985 306.116C225.263 306.305 225.626 306.4 226.074 306.4C226.561 306.4 226.95 306.299 227.242 306.097C227.534 305.891 227.68 305.641 227.68 305.346C227.68 305.107 227.59 304.907 227.411 304.744C227.235 304.582 226.965 304.459 226.601 304.376L225.308 304.093C224.595 303.931 224.069 303.672 223.727 303.317C223.389 302.963 223.22 302.514 223.22 301.97C223.22 301.519 223.346 301.125 223.598 300.787C223.85 300.449 224.198 300.185 224.642 299.996C225.086 299.804 225.595 299.708 226.168 299.708C226.993 299.708 227.643 299.887 228.117 300.245C228.591 300.6 228.904 301.075 229.057 301.672ZM234.405 299.807V301.001H230.234V299.807H234.405ZM231.352 297.978H232.839V305.202C232.839 305.49 232.882 305.707 232.968 305.853C233.054 305.995 233.165 306.093 233.301 306.146C233.44 306.196 233.591 306.221 233.754 306.221C233.873 306.221 233.977 306.213 234.067 306.196C234.156 306.179 234.226 306.166 234.276 306.156L234.544 307.384C234.458 307.417 234.335 307.45 234.176 307.484C234.017 307.52 233.818 307.54 233.58 307.543C233.188 307.55 232.824 307.48 232.486 307.334C232.148 307.189 231.874 306.963 231.666 306.658C231.457 306.353 231.352 305.971 231.352 305.51V297.978ZM236.049 307.444V299.807H237.536V307.444H236.049ZM236.8 298.629C236.541 298.629 236.319 298.543 236.134 298.371C235.951 298.195 235.86 297.986 235.86 297.744C235.86 297.499 235.951 297.29 236.134 297.118C236.319 296.942 236.541 296.854 236.8 296.854C237.058 296.854 237.279 296.942 237.461 297.118C237.647 297.29 237.74 297.499 237.74 297.744C237.74 297.986 237.647 298.195 237.461 298.371C237.279 298.543 237.058 298.629 236.8 298.629ZM240.903 304.854L240.893 303.039H241.151L244.194 299.807H245.974L242.504 303.486H242.27L240.903 304.854ZM239.536 307.444V297.262H241.022V307.444H239.536ZM244.358 307.444L241.624 303.815L242.648 302.776L246.183 307.444H244.358Z" fill="white"/>
<g opacity="0.5">
<rect x="116.642" y="345.444" width="84.6384" height="84.6384" rx="12.0912" fill="#D4D4D4"/>
<path d="M182.322 360.12L167.627 359.578L165.007 368.216L173.325 376.176C173.515 376.358 173.627 376.608 173.635 376.872C173.643 377.136 173.547 377.392 173.368 377.586L167.761 383.662L172.856 388.237C172.96 388.33 173.044 388.444 173.102 388.572C173.159 388.699 173.189 388.838 173.191 388.977C173.192 389.117 173.164 389.256 173.109 389.384C173.053 389.513 172.972 389.629 172.87 389.724L166.418 395.723L173.346 401.33C173.463 401.425 173.558 401.545 173.623 401.682C173.687 401.818 173.721 401.967 173.72 402.118C173.72 402.269 173.685 402.418 173.619 402.553C173.554 402.689 173.458 402.808 173.34 402.902L166.831 408.077L169.804 412.09L180.397 412.48C181.728 412.52 183.023 412.04 184.005 411.139C184.491 410.691 184.883 410.15 185.159 409.549C185.435 408.947 185.589 408.297 185.612 407.636L187.174 365.34C187.222 364.005 186.738 362.706 185.829 361.727C184.92 360.749 183.66 360.171 182.325 360.12H182.322Z" fill="white"/>
<path d="M131.933 376.042L136.468 375.15C137.779 374.892 138.933 374.124 139.678 373.015C140.423 371.906 140.696 370.546 140.439 369.235L139.547 364.701L131.933 376.042Z" fill="white"/>
<path d="M161.687 402.079L153.742 398.25C153.612 398.187 153.497 398.097 153.405 397.986C153.313 397.875 153.246 397.746 153.208 397.606C153.17 397.467 153.163 397.321 153.186 397.179C153.21 397.036 153.264 396.901 153.344 396.781L158.288 389.415L152.353 386.168C152.236 386.104 152.133 386.017 152.049 385.913C151.966 385.808 151.904 385.689 151.868 385.56C151.831 385.432 151.821 385.298 151.836 385.165C151.852 385.033 151.894 384.905 151.96 384.789L156.04 377.56L146.438 371.902C146.278 371.808 146.147 371.671 146.06 371.506C145.972 371.342 145.933 371.156 145.944 370.97L146.518 361.878L141.25 362.915L142.416 368.846C142.777 370.682 142.394 372.585 141.351 374.138C140.309 375.691 138.692 376.767 136.857 377.128L130.924 378.291L137.534 411.906C137.792 413.217 138.56 414.372 139.669 415.116C140.778 415.861 142.138 416.135 143.449 415.877L160.175 412.588L156.85 409.776C156.65 409.607 156.524 409.368 156.498 409.108C156.472 408.848 156.548 408.588 156.71 408.382L161.687 402.079Z" fill="white"/>
</g>
<defs>
<clipPath id="clip0_365_8482">
<rect width="97.9239" height="97.9239" fill="white" transform="translate(67.8425 193.481)"/>
</clipPath>
</defs>
</svg>
