<svg width="317" height="399" viewBox="0 0 317 399" fill="none" xmlns="http://www.w3.org/2000/svg">
<path d="M48 196.5L0 0H317L272 196.5H48Z" fill="url(#paint0_linear_356_8412)"/>
<path d="M48 202.5L0 399H317L272 202.5H48Z" fill="url(#paint1_linear_356_8412)"/>
<rect x="11" y="194.5" width="295" height="8" rx="4" fill="#43C4A8"/>
<g opacity="0.5">
<rect x="27" y="52.5" width="48.5783" height="48.5783" rx="6.93976" fill="#A1A1A1"/>
<path d="M64.6968 60.9232L56.2626 60.6121L54.759 65.5699L59.533 70.1386C59.6424 70.2434 59.7062 70.387 59.7109 70.5384C59.7155 70.6897 59.6606 70.8369 59.5579 70.9483L56.3396 74.4355L59.2641 77.061C59.3238 77.1147 59.3717 77.1802 59.4048 77.2534C59.4378 77.3266 59.4552 77.4059 59.4559 77.4862C59.4566 77.5665 59.4406 77.646 59.4089 77.7198C59.3771 77.7936 59.3304 77.8599 59.2716 77.9146L55.5687 81.3579L59.5452 84.5762C59.6125 84.6307 59.6667 84.6995 59.7039 84.7777C59.7411 84.856 59.7602 84.9415 59.7598 85.0281C59.7595 85.1147 59.7397 85.2001 59.702 85.2781C59.6642 85.356 59.6094 85.4244 59.5417 85.4784L55.8058 88.4486L57.5124 90.7514L63.5922 90.9752C64.3562 90.9987 65.0992 90.7227 65.6626 90.2061C65.9416 89.9485 66.1667 89.6382 66.3251 89.293C66.4834 88.9479 66.5717 88.5748 66.585 88.1953L67.4819 63.9194C67.5091 63.1533 67.2314 62.4076 66.7096 61.8459C66.1878 61.2842 65.4646 60.9524 64.6985 60.9232H64.6968Z" fill="white"/>
<path d="M35.7765 70.0617L38.3789 69.5498C39.1313 69.4018 39.794 68.961 40.2214 68.3244C40.6488 67.6878 40.8059 66.9075 40.658 66.1551L40.1462 63.5527L35.7765 70.0617Z" fill="white"/>
<path d="M52.8535 85.0058L48.2935 82.8082C48.2189 82.7722 48.153 82.7205 48.1001 82.6568C48.0472 82.593 48.0086 82.5187 47.9869 82.4387C47.9653 82.3588 47.961 82.2751 47.9745 82.1934C47.988 82.1117 48.0189 82.0338 48.0651 81.965L50.9029 77.7376L47.496 75.8736C47.4288 75.8368 47.3697 75.7871 47.3219 75.7272C47.2741 75.6673 47.2387 75.5986 47.2177 75.5249C47.1968 75.4513 47.1906 75.3742 47.1997 75.2982C47.2087 75.2221 47.2328 75.1486 47.2705 75.0819L49.6121 70.9331L44.1013 67.6859C44.0093 67.6316 43.9341 67.5529 43.884 67.4585C43.834 67.364 43.8111 67.2576 43.8179 67.151L44.147 61.9323L41.1236 62.5273L41.7927 65.9319C41.9998 66.9853 41.7801 68.0778 41.1817 68.9692C40.5834 69.8606 39.6555 70.4778 38.6021 70.685L35.197 71.353L38.9908 90.6461C39.1388 91.3984 39.5796 92.0612 40.2162 92.4886C40.8528 92.916 41.6331 93.0731 42.3855 92.9252L51.9855 91.0376L50.077 89.4235C49.9625 89.3267 49.8902 89.1891 49.8752 89.0399C49.8602 88.8907 49.9037 88.7414 49.9966 88.6237L52.8535 85.0058Z" fill="white"/>
</g>
<g opacity="0.5">
<rect x="250" y="34.5" width="48.5783" height="48.5783" rx="6.93976" fill="#A1A1A1"/>
<path d="M279.976 56.3585C279.894 56.5645 279.765 56.7487 279.6 56.8972C279.435 57.0456 279.238 57.1543 279.025 57.2149C278.811 57.2754 278.587 57.2863 278.368 57.2466C278.15 57.2069 277.944 57.1178 277.765 56.9859C274.076 54.2128 271.019 56.8089 270.893 56.9202C270.718 57.0702 270.509 57.1764 270.285 57.2298C270.06 57.2833 269.827 57.2825 269.602 57.2276C269.378 57.1727 269.171 57.0653 268.996 56.9141C268.822 56.763 268.686 56.5725 268.6 56.3585C268.408 55.8676 267.31 55.4577 265.959 55.2097C265.478 55.1237 264.967 55.0529 264.451 55.0124C264.471 55.0391 264.493 55.0644 264.517 55.0883C266.171 56.8595 269.678 61.6113 266.753 67.5827C267.979 67.2011 269.075 66.4883 269.921 65.5231C270.064 65.3655 270.24 65.2413 270.436 65.1594C270.633 65.0774 270.845 65.0397 271.057 65.0489C271.27 65.0581 271.478 65.1139 271.666 65.2125C271.855 65.3111 272.019 65.4499 272.148 65.6192C272.399 65.9477 272.723 66.214 273.094 66.3973C273.465 66.5807 273.873 66.6764 274.287 66.6768C274.701 66.6773 275.109 66.5826 275.481 66.4001C275.852 66.2176 276.177 65.9521 276.429 65.6242C276.559 65.4564 276.723 65.3191 276.912 65.2219C277.1 65.1248 277.308 65.0702 277.52 65.062C277.732 65.0538 277.943 65.0922 278.138 65.1745C278.333 65.2568 278.508 65.3809 278.651 65.5382C279.495 66.4986 280.587 67.2078 281.808 67.5878C278.907 61.4994 282.432 56.8673 284.192 54.9972C282.926 55.0556 280.243 55.5631 279.976 56.3585ZM271.293 62.6993C271.159 62.7056 271.028 62.6593 270.928 62.5705C270.828 62.4816 270.766 62.3572 270.756 62.2236C270.705 61.4847 270.483 60.7676 270.109 60.1286C270.075 60.0709 270.054 60.0072 270.046 59.9412C270.038 59.8752 270.043 59.8082 270.061 59.7442C270.078 59.6801 270.109 59.6203 270.15 59.5681C270.191 59.516 270.243 59.4725 270.301 59.4403C271.244 58.9346 271.749 61.6089 271.768 62.1629C271.773 62.2294 271.764 62.2961 271.742 62.3591C271.72 62.4222 271.687 62.4803 271.642 62.5302C271.598 62.5801 271.544 62.6207 271.484 62.6497C271.424 62.6788 271.359 62.6956 271.293 62.6993ZM278.484 60.1286C278.106 60.7691 277.879 61.4874 277.821 62.2287C277.811 62.3565 277.754 62.4761 277.66 62.5633C277.566 62.6506 277.443 62.6992 277.315 62.6993C276.189 62.6414 277.248 60.2541 277.598 59.6326C277.665 59.5174 277.774 59.4332 277.903 59.3981C278.031 59.3629 278.169 59.3797 278.285 59.4448C278.401 59.5099 278.487 59.6181 278.524 59.746C278.561 59.8739 278.547 60.0113 278.484 60.1286Z" fill="white"/>
<path d="M284.749 68.8023C283.488 68.9198 282.218 68.7423 281.039 68.2837C279.859 67.8252 278.802 67.0983 277.952 66.1606C277.903 66.105 277.841 66.0611 277.773 66.032C277.704 66.0029 277.63 65.9893 277.556 65.9922C277.481 65.9951 277.408 66.0144 277.342 66.0488C277.276 66.0832 277.218 66.1318 277.173 66.1911C276.833 66.6336 276.395 66.9918 275.894 67.2379C275.393 67.4841 274.842 67.6116 274.284 67.6107C273.725 67.6097 273.175 67.4802 272.674 67.2323C272.174 66.9843 271.738 66.6246 271.399 66.1809C271.353 66.1229 271.295 66.0756 271.229 66.0421C271.163 66.0087 271.09 65.9898 271.016 65.987C270.942 65.9841 270.869 65.9972 270.8 66.0254C270.732 66.0537 270.67 66.0963 270.62 66.1505C269.771 67.092 268.713 67.8203 267.53 68.2766C266.348 68.7329 265.074 68.9043 263.813 68.7769C263.726 68.7627 263.636 68.7718 263.553 68.8033C263.47 68.8348 263.397 68.8877 263.341 68.9564C263.285 69.0252 263.249 69.1075 263.235 69.1951C263.221 69.2826 263.23 69.3723 263.262 69.455C263.277 69.5057 265.119 74.05 269.962 73.9539C270.073 73.9532 270.18 73.9138 270.265 73.8425C270.407 73.7312 273.767 71.12 278.342 73.8931C278.475 73.961 278.624 73.9875 278.772 73.969C283.489 73.969 285.285 69.531 285.305 69.4854C285.336 69.402 285.345 69.3119 285.33 69.2241C285.316 69.1362 285.278 69.0538 285.222 68.9848C285.166 68.9158 285.093 68.8626 285.01 68.8306C284.927 68.7986 284.837 68.7889 284.749 68.8023Z" fill="white"/>
<path d="M286.1 53.1905C281.424 47.4924 276.793 48.6917 274.901 49.5469C274.917 49.2416 274.91 48.9354 274.88 48.631C275.547 48.8283 276.259 48.8034 276.91 48.5602C278.531 47.8343 279.16 46.5457 279.794 44.4915C279.827 44.3687 279.812 44.2384 279.754 44.1254C279.697 44.0124 279.599 43.9247 279.481 43.8792C278.213 43.3805 275.243 43.3046 274.197 46.0401C273.939 45.4349 273.613 44.861 273.226 44.3296C273.186 44.2766 273.135 44.232 273.078 44.1985C273.021 44.1649 272.957 44.143 272.891 44.134C272.825 44.125 272.758 44.1291 272.694 44.146C272.63 44.1629 272.57 44.1923 272.517 44.2326C272.464 44.2728 272.419 44.3231 272.386 44.3806C272.352 44.4381 272.331 44.5015 272.322 44.5674C272.313 44.6333 272.317 44.7003 272.334 44.7646C272.351 44.8288 272.381 44.8891 272.421 44.9419C273.184 46.0338 273.677 47.2912 273.858 48.6108C273.898 48.9534 273.905 49.2991 273.879 49.6431C272.133 48.7879 267.33 47.2799 262.477 53.1905C262.417 53.2653 262.379 53.3557 262.368 53.4511C262.357 53.5466 262.374 53.6432 262.416 53.7296C262.458 53.8161 262.523 53.8888 262.605 53.9394C262.687 53.99 262.781 54.0163 262.877 54.0153C264.37 53.9901 268.798 54.2937 269.471 56.0193C269.502 56.0935 269.55 56.1594 269.611 56.2117C269.673 56.264 269.745 56.3012 269.823 56.3204C269.902 56.3396 269.983 56.3402 270.062 56.3222C270.14 56.3042 270.213 56.268 270.275 56.2167C270.427 56.0801 274.035 53.0135 278.332 56.2369C278.394 56.2832 278.466 56.3146 278.543 56.3287C278.619 56.3427 278.697 56.3391 278.772 56.3181C278.847 56.2971 278.916 56.2593 278.974 56.2075C279.032 56.1557 279.077 56.0913 279.106 56.0194C279.779 54.2887 284.091 53.985 285.7 54.0154C285.796 54.0161 285.89 53.9897 285.972 53.939C286.053 53.8884 286.119 53.8157 286.16 53.7293C286.202 53.6429 286.219 53.5465 286.208 53.4511C286.197 53.3558 286.16 53.2654 286.1 53.1905Z" fill="white"/>
</g>
<rect x="115" y="241.5" width="88" height="37" rx="4" fill="#43C4A8"/>
<path d="M126.979 265.5H125.348L129.012 255.318H130.787L134.451 265.5H132.82L129.942 257.168H129.862L126.979 265.5ZM127.252 261.513H132.542V262.805H127.252V261.513ZM137.289 260.966V265.5H135.802V257.864H137.229V259.107H137.323C137.499 258.702 137.774 258.377 138.149 258.132C138.526 257.887 139.002 257.764 139.575 257.764C140.096 257.764 140.552 257.874 140.943 258.092C141.334 258.308 141.637 258.629 141.852 259.057C142.068 259.484 142.176 260.013 142.176 260.643V265.5H140.689V260.822C140.689 260.268 140.545 259.836 140.257 259.524C139.968 259.209 139.572 259.052 139.068 259.052C138.724 259.052 138.417 259.126 138.149 259.276C137.883 259.425 137.673 259.643 137.517 259.932C137.365 260.217 137.289 260.562 137.289 260.966ZM147.386 265.654C146.67 265.654 146.045 265.49 145.512 265.162C144.978 264.834 144.564 264.375 144.269 263.785C143.974 263.195 143.826 262.505 143.826 261.717C143.826 260.924 143.974 260.232 144.269 259.638C144.564 259.045 144.978 258.585 145.512 258.256C146.045 257.928 146.67 257.764 147.386 257.764C148.102 257.764 148.727 257.928 149.26 258.256C149.794 258.585 150.208 259.045 150.503 259.638C150.798 260.232 150.945 260.924 150.945 261.717C150.945 262.505 150.798 263.195 150.503 263.785C150.208 264.375 149.794 264.834 149.26 265.162C148.727 265.49 148.102 265.654 147.386 265.654ZM147.391 264.406C147.855 264.406 148.239 264.284 148.544 264.038C148.849 263.793 149.075 263.467 149.22 263.059C149.369 262.651 149.444 262.202 149.444 261.712C149.444 261.224 149.369 260.777 149.22 260.369C149.075 259.958 148.849 259.629 148.544 259.38C148.239 259.131 147.855 259.007 147.391 259.007C146.923 259.007 146.536 259.131 146.227 259.38C145.923 259.629 145.695 259.958 145.546 260.369C145.401 260.777 145.328 261.224 145.328 261.712C145.328 262.202 145.401 262.651 145.546 263.059C145.695 263.467 145.923 263.793 146.227 264.038C146.536 264.284 146.923 264.406 147.391 264.406ZM152.605 265.5V257.864H154.042V259.077H154.121C154.26 258.666 154.506 258.343 154.857 258.107C155.212 257.869 155.613 257.749 156.06 257.749C156.153 257.749 156.262 257.753 156.388 257.759C156.517 257.766 156.618 257.774 156.691 257.784V259.206C156.632 259.189 156.526 259.171 156.373 259.151C156.221 259.128 156.068 259.116 155.916 259.116C155.565 259.116 155.251 259.191 154.976 259.34C154.704 259.486 154.489 259.69 154.33 259.952C154.171 260.21 154.091 260.505 154.091 260.837V265.5H152.605ZM160.906 268.523C160.3 268.523 159.778 268.443 159.34 268.284C158.906 268.125 158.551 267.915 158.276 267.653C158.001 267.391 157.796 267.104 157.66 266.793L158.937 266.266C159.027 266.411 159.146 266.566 159.295 266.728C159.448 266.894 159.653 267.035 159.912 267.151C160.174 267.267 160.51 267.325 160.921 267.325C161.484 267.325 161.95 267.187 162.318 266.912C162.686 266.64 162.87 266.206 162.87 265.609V264.108H162.775C162.686 264.27 162.557 264.451 162.388 264.65C162.222 264.849 161.993 265.021 161.702 265.167C161.41 265.313 161.03 265.386 160.563 265.386C159.96 265.386 159.416 265.245 158.932 264.963C158.452 264.678 158.071 264.259 157.789 263.705C157.51 263.148 157.371 262.464 157.371 261.652C157.371 260.84 157.509 260.144 157.784 259.564C158.062 258.984 158.443 258.54 158.927 258.232C159.411 257.92 159.96 257.764 160.573 257.764C161.047 257.764 161.43 257.844 161.721 258.003C162.013 258.159 162.24 258.341 162.403 258.55C162.568 258.759 162.696 258.942 162.785 259.102H162.895V257.864H164.351V265.669C164.351 266.325 164.199 266.864 163.894 267.285C163.589 267.706 163.176 268.017 162.656 268.219C162.139 268.422 161.556 268.523 160.906 268.523ZM160.891 264.153C161.319 264.153 161.68 264.053 161.975 263.854C162.273 263.652 162.499 263.364 162.651 262.989C162.807 262.612 162.885 262.159 162.885 261.632C162.885 261.118 162.809 260.666 162.656 260.275C162.504 259.884 162.28 259.579 161.985 259.36C161.69 259.138 161.325 259.027 160.891 259.027C160.444 259.027 160.071 259.143 159.773 259.375C159.474 259.604 159.249 259.915 159.096 260.31C158.947 260.704 158.873 261.145 158.873 261.632C158.873 262.133 158.949 262.572 159.101 262.95C159.254 263.327 159.479 263.622 159.778 263.835C160.079 264.047 160.45 264.153 160.891 264.153ZM168.567 265.669C168.083 265.669 167.646 265.58 167.255 265.401C166.864 265.218 166.554 264.955 166.325 264.61C166.1 264.265 165.987 263.843 165.987 263.342C165.987 262.911 166.07 262.557 166.236 262.278C166.401 262 166.625 261.78 166.907 261.617C167.189 261.455 167.503 261.332 167.851 261.249C168.199 261.166 168.554 261.103 168.915 261.06C169.373 261.007 169.744 260.964 170.029 260.931C170.314 260.895 170.521 260.837 170.65 260.757C170.78 260.678 170.844 260.548 170.844 260.369V260.335C170.844 259.9 170.722 259.564 170.476 259.325C170.234 259.087 169.873 258.967 169.393 258.967C168.892 258.967 168.498 259.078 168.209 259.3C167.924 259.519 167.727 259.763 167.618 260.031L166.221 259.713C166.386 259.249 166.628 258.875 166.947 258.589C167.268 258.301 167.638 258.092 168.055 257.963C168.473 257.83 168.912 257.764 169.373 257.764C169.678 257.764 170.001 257.801 170.342 257.874C170.687 257.943 171.008 258.072 171.307 258.261C171.608 258.45 171.855 258.72 172.047 259.072C172.24 259.42 172.336 259.872 172.336 260.429V265.5H170.884V264.456H170.824C170.728 264.648 170.584 264.837 170.392 265.023C170.2 265.208 169.953 265.362 169.651 265.485C169.349 265.608 168.988 265.669 168.567 265.669ZM168.89 264.476C169.301 264.476 169.653 264.395 169.944 264.232C170.239 264.07 170.463 263.858 170.616 263.596C170.771 263.331 170.849 263.047 170.849 262.746V261.761C170.796 261.814 170.693 261.864 170.541 261.911C170.392 261.954 170.221 261.992 170.029 262.025C169.837 262.055 169.649 262.083 169.467 262.109C169.285 262.133 169.132 262.152 169.01 262.169C168.721 262.205 168.458 262.267 168.219 262.353C167.984 262.439 167.795 262.563 167.653 262.726C167.513 262.885 167.444 263.097 167.444 263.362C167.444 263.73 167.58 264.009 167.851 264.197C168.123 264.383 168.47 264.476 168.89 264.476ZM175.802 260.966V265.5H174.316V257.864H175.743V259.107H175.837C176.013 258.702 176.288 258.377 176.662 258.132C177.04 257.887 177.516 257.764 178.089 257.764C178.609 257.764 179.065 257.874 179.456 258.092C179.847 258.308 180.151 258.629 180.366 259.057C180.582 259.484 180.689 260.013 180.689 260.643V265.5H179.203V260.822C179.203 260.268 179.059 259.836 178.77 259.524C178.482 259.209 178.086 259.052 177.582 259.052C177.237 259.052 176.931 259.126 176.662 259.276C176.397 259.425 176.187 259.643 176.031 259.932C175.878 260.217 175.802 260.562 175.802 260.966ZM182.683 265.5V257.864H184.169V265.5H182.683ZM183.434 256.685C183.175 256.685 182.953 256.599 182.767 256.427C182.585 256.251 182.494 256.042 182.494 255.8C182.494 255.555 182.585 255.346 182.767 255.174C182.953 254.998 183.175 254.911 183.434 254.911C183.692 254.911 183.913 254.998 184.095 255.174C184.28 255.346 184.373 255.555 184.373 255.8C184.373 256.042 184.28 256.251 184.095 256.427C183.913 256.599 183.692 256.685 183.434 256.685ZM187.536 262.91L187.526 261.095H187.785L190.828 257.864H192.607L189.137 261.543H188.904L187.536 262.91ZM186.169 265.5V255.318H187.656V265.5H186.169ZM190.992 265.5L188.257 261.871L189.281 260.832L192.816 265.5H190.992Z" fill="white"/>
<g opacity="0.4">
<rect x="17" y="300.5" width="88" height="37" rx="4" fill="#A1A1A1"/>
<path d="M28.9787 324.5H27.348L31.0121 314.318H32.7869L36.451 324.5H34.8203L31.9418 316.168H31.8622L28.9787 324.5ZM29.2521 320.513H34.5419V321.805H29.2521V320.513ZM39.2885 319.966V324.5H37.802V316.864H39.2289V318.107H39.3233C39.499 317.702 39.7741 317.377 40.1486 317.132C40.5265 316.887 41.0021 316.764 41.5755 316.764C42.0958 316.764 42.5516 316.874 42.9426 317.092C43.3337 317.308 43.637 317.629 43.8525 318.057C44.0679 318.484 44.1756 319.013 44.1756 319.643V324.5H42.6891V319.822C42.6891 319.268 42.5449 318.836 42.2566 318.524C41.9682 318.209 41.5721 318.052 41.0684 318.052C40.7237 318.052 40.4171 318.126 40.1486 318.276C39.8835 318.425 39.673 318.643 39.5172 318.932C39.3648 319.217 39.2885 319.562 39.2885 319.966ZM49.3858 324.654C48.6699 324.654 48.0452 324.49 47.5115 324.162C46.9779 323.834 46.5636 323.375 46.2686 322.785C45.9737 322.195 45.8262 321.505 45.8262 320.717C45.8262 319.924 45.9737 319.232 46.2686 318.638C46.5636 318.045 46.9779 317.585 47.5115 317.256C48.0452 316.928 48.6699 316.764 49.3858 316.764C50.1017 316.764 50.7265 316.928 51.2601 317.256C51.7937 317.585 52.208 318.045 52.503 318.638C52.798 319.232 52.9455 319.924 52.9455 320.717C52.9455 321.505 52.798 322.195 52.503 322.785C52.208 323.375 51.7937 323.834 51.2601 324.162C50.7265 324.49 50.1017 324.654 49.3858 324.654ZM49.3908 323.406C49.8548 323.406 50.2393 323.284 50.5442 323.038C50.8491 322.793 51.0745 322.467 51.2203 322.059C51.3695 321.651 51.4441 321.202 51.4441 320.712C51.4441 320.224 51.3695 319.777 51.2203 319.369C51.0745 318.958 50.8491 318.629 50.5442 318.38C50.2393 318.131 49.8548 318.007 49.3908 318.007C48.9235 318.007 48.5357 318.131 48.2275 318.38C47.9225 318.629 47.6955 318.958 47.5463 319.369C47.4005 319.777 47.3276 320.224 47.3276 320.712C47.3276 321.202 47.4005 321.651 47.5463 322.059C47.6955 322.467 47.9225 322.793 48.2275 323.038C48.5357 323.284 48.9235 323.406 49.3908 323.406ZM54.6048 324.5V316.864H56.0415V318.077H56.1211C56.2603 317.666 56.5056 317.343 56.8569 317.107C57.2115 316.869 57.6126 316.749 58.06 316.749C58.1528 316.749 58.2622 316.753 58.3881 316.759C58.5174 316.766 58.6185 316.774 58.6914 316.784V318.206C58.6317 318.189 58.5257 318.171 58.3732 318.151C58.2208 318.128 58.0683 318.116 57.9158 318.116C57.5645 318.116 57.2513 318.191 56.9762 318.34C56.7044 318.486 56.489 318.69 56.3299 318.952C56.1708 319.21 56.0913 319.505 56.0913 319.837V324.5H54.6048ZM62.9061 327.523C62.2995 327.523 61.7775 327.443 61.34 327.284C60.9058 327.125 60.5512 326.915 60.2761 326.653C60.001 326.391 59.7955 326.104 59.6596 325.793L60.9373 325.266C61.0268 325.411 61.1461 325.566 61.2953 325.728C61.4477 325.894 61.6532 326.035 61.9118 326.151C62.1736 326.267 62.51 326.325 62.921 326.325C63.4844 326.325 63.9501 326.187 64.318 325.912C64.6859 325.64 64.8699 325.206 64.8699 324.609V323.108H64.7754C64.6859 323.27 64.5566 323.451 64.3876 323.65C64.2219 323.849 63.9932 324.021 63.7015 324.167C63.4099 324.313 63.0304 324.386 62.563 324.386C61.9598 324.386 61.4163 324.245 60.9324 323.963C60.4518 323.678 60.0706 323.259 59.7889 322.705C59.5105 322.148 59.3713 321.464 59.3713 320.652C59.3713 319.84 59.5088 319.144 59.7839 318.564C60.0623 317.984 60.4435 317.54 60.9274 317.232C61.4113 316.92 61.9598 316.764 62.573 316.764C63.0469 316.764 63.4297 316.844 63.7214 317.003C64.0131 317.159 64.2401 317.341 64.4025 317.55C64.5682 317.759 64.6958 317.942 64.7853 318.102H64.8947V316.864H66.3514V324.669C66.3514 325.325 66.1989 325.864 65.894 326.285C65.5891 326.706 65.1764 327.017 64.6561 327.219C64.139 327.422 63.5557 327.523 62.9061 327.523ZM62.8912 323.153C63.3187 323.153 63.68 323.053 63.975 322.854C64.2733 322.652 64.4986 322.364 64.6511 321.989C64.8069 321.612 64.8848 321.159 64.8848 320.632C64.8848 320.118 64.8085 319.666 64.6561 319.275C64.5036 318.884 64.2799 318.579 63.9849 318.36C63.6899 318.138 63.3253 318.027 62.8912 318.027C62.4437 318.027 62.0708 318.143 61.7725 318.375C61.4743 318.604 61.2489 318.915 61.0964 319.31C60.9473 319.704 60.8727 320.145 60.8727 320.632C60.8727 321.133 60.9489 321.572 61.1014 321.95C61.2538 322.327 61.4792 322.622 61.7775 322.835C62.0791 323.047 62.4503 323.153 62.8912 323.153ZM70.5673 324.669C70.0834 324.669 69.6459 324.58 69.2548 324.401C68.8637 324.218 68.5538 323.955 68.3251 323.61C68.0997 323.265 67.987 322.843 67.987 322.342C67.987 321.911 68.0699 321.557 68.2356 321.278C68.4013 321 68.6251 320.78 68.9068 320.617C69.1885 320.455 69.5034 320.332 69.8514 320.249C70.1994 320.166 70.554 320.103 70.9153 320.06C71.3727 320.007 71.7439 319.964 72.0289 319.931C72.314 319.895 72.5211 319.837 72.6504 319.757C72.7797 319.678 72.8443 319.548 72.8443 319.369V319.335C72.8443 318.9 72.7217 318.564 72.4764 318.325C72.2344 318.087 71.8732 317.967 71.3926 317.967C70.8921 317.967 70.4977 318.078 70.2093 318.3C69.9243 318.519 69.7271 318.763 69.6177 319.031L68.2207 318.713C68.3864 318.249 68.6284 317.875 68.9466 317.589C69.2681 317.301 69.6376 317.092 70.0552 316.963C70.4728 316.83 70.912 316.764 71.3727 316.764C71.6776 316.764 72.0008 316.801 72.3422 316.874C72.6868 316.943 73.0083 317.072 73.3066 317.261C73.6083 317.45 73.8552 317.72 74.0474 318.072C74.2396 318.42 74.3358 318.872 74.3358 319.429V324.5H72.8841V323.456H72.8244C72.7283 323.648 72.5841 323.837 72.3919 324.023C72.1996 324.208 71.9527 324.362 71.6511 324.485C71.3495 324.608 70.9882 324.669 70.5673 324.669ZM70.8904 323.476C71.3014 323.476 71.6528 323.395 71.9444 323.232C72.2394 323.07 72.4631 322.858 72.6156 322.596C72.7714 322.331 72.8493 322.047 72.8493 321.746V320.761C72.7962 320.814 72.6935 320.864 72.541 320.911C72.3919 320.954 72.2212 320.992 72.0289 321.025C71.8367 321.055 71.6494 321.083 71.4672 321.109C71.2849 321.133 71.1324 321.152 71.0098 321.169C70.7214 321.205 70.4579 321.267 70.2193 321.353C69.984 321.439 69.795 321.563 69.6525 321.726C69.5133 321.885 69.4437 322.097 69.4437 322.362C69.4437 322.73 69.5796 323.009 69.8514 323.197C70.1232 323.383 70.4695 323.476 70.8904 323.476ZM77.8022 319.966V324.5H76.3157V316.864H77.7425V318.107H77.837C78.0127 317.702 78.2878 317.377 78.6623 317.132C79.0401 316.887 79.5157 316.764 80.0891 316.764C80.6095 316.764 81.0652 316.874 81.4563 317.092C81.8474 317.308 82.1507 317.629 82.3661 318.057C82.5816 318.484 82.6893 319.013 82.6893 319.643V324.5H81.2028V319.822C81.2028 319.268 81.0586 318.836 80.7702 318.524C80.4819 318.209 80.0858 318.052 79.582 318.052C79.2373 318.052 78.9308 318.126 78.6623 318.276C78.3971 318.425 78.1867 318.643 78.0309 318.932C77.8784 319.217 77.8022 319.562 77.8022 319.966ZM84.6829 324.5V316.864H86.1694V324.5H84.6829ZM85.4336 315.685C85.1751 315.685 84.953 315.599 84.7674 315.427C84.5851 315.251 84.494 315.042 84.494 314.8C84.494 314.555 84.5851 314.346 84.7674 314.174C84.953 313.998 85.1751 313.911 85.4336 313.911C85.6921 313.911 85.9125 313.998 86.0948 314.174C86.2804 314.346 86.3732 314.555 86.3732 314.8C86.3732 315.042 86.2804 315.251 86.0948 315.427C85.9125 315.599 85.6921 315.685 85.4336 315.685ZM89.5364 321.91L89.5265 320.095H89.785L92.8276 316.864H94.6074L91.1373 320.543H90.9036L89.5364 321.91ZM88.1692 324.5V314.318H89.6557V324.5H88.1692ZM92.9917 324.5L90.2573 320.871L91.2814 319.832L94.8162 324.5H92.9917Z" fill="white"/>
</g>
<g opacity="0.4">
<rect x="210.5" y="327.5" width="73" height="37" rx="4" fill="#A1A1A1"/>
<path d="M230.463 346.409C230.463 347.496 230.264 348.431 229.866 349.213C229.469 349.992 228.924 350.592 228.231 351.013C227.541 351.43 226.758 351.639 225.879 351.639C224.998 351.639 224.21 351.43 223.518 351.013C222.828 350.592 222.285 349.99 221.887 349.208C221.489 348.426 221.29 347.493 221.29 346.409C221.29 345.322 221.489 344.389 221.887 343.61C222.285 342.828 222.828 342.228 223.518 341.81C224.21 341.389 224.998 341.179 225.879 341.179C226.758 341.179 227.541 341.389 228.231 341.81C228.924 342.228 229.469 342.828 229.866 343.61C230.264 344.389 230.463 345.322 230.463 346.409ZM228.942 346.409C228.942 345.58 228.808 344.883 228.539 344.316C228.274 343.746 227.909 343.315 227.445 343.023C226.985 342.728 226.463 342.581 225.879 342.581C225.293 342.581 224.769 342.728 224.308 343.023C223.848 343.315 223.483 343.746 223.214 344.316C222.949 344.883 222.817 345.58 222.817 346.409C222.817 347.238 222.949 347.937 223.214 348.507C223.483 349.074 223.848 349.505 224.308 349.8C224.769 350.091 225.293 350.237 225.879 350.237C226.463 350.237 226.985 350.091 227.445 349.8C227.909 349.505 228.274 349.074 228.539 348.507C228.808 347.937 228.942 347.238 228.942 346.409ZM232.259 351.5V343.864H233.696V345.077H233.775C233.915 344.666 234.16 344.343 234.511 344.107C234.866 343.869 235.267 343.749 235.714 343.749C235.807 343.749 235.916 343.753 236.042 343.759C236.172 343.766 236.273 343.774 236.346 343.784V345.206C236.286 345.189 236.18 345.171 236.028 345.151C235.875 345.128 235.723 345.116 235.57 345.116C235.219 345.116 234.906 345.191 234.631 345.34C234.359 345.486 234.143 345.69 233.984 345.952C233.825 346.21 233.746 346.505 233.746 346.837V351.5H232.259ZM240.56 354.523C239.954 354.523 239.432 354.443 238.994 354.284C238.56 354.125 238.205 353.915 237.93 353.653C237.655 353.391 237.45 353.104 237.314 352.793L238.592 352.266C238.681 352.411 238.8 352.566 238.95 352.728C239.102 352.894 239.308 353.035 239.566 353.151C239.828 353.267 240.164 353.325 240.575 353.325C241.139 353.325 241.604 353.187 241.972 352.912C242.34 352.64 242.524 352.206 242.524 351.609V350.108H242.43C242.34 350.27 242.211 350.451 242.042 350.65C241.876 350.849 241.647 351.021 241.356 351.167C241.064 351.313 240.685 351.386 240.217 351.386C239.614 351.386 239.071 351.245 238.587 350.963C238.106 350.678 237.725 350.259 237.443 349.705C237.165 349.148 237.026 348.464 237.026 347.652C237.026 346.84 237.163 346.144 237.438 345.564C237.717 344.984 238.098 344.54 238.582 344.232C239.066 343.92 239.614 343.764 240.227 343.764C240.701 343.764 241.084 343.844 241.376 344.003C241.667 344.159 241.894 344.341 242.057 344.55C242.223 344.759 242.35 344.942 242.44 345.102H242.549V343.864H244.006V351.669C244.006 352.325 243.853 352.864 243.548 353.285C243.243 353.706 242.831 354.017 242.31 354.219C241.793 354.422 241.21 354.523 240.56 354.523ZM240.545 350.153C240.973 350.153 241.334 350.053 241.629 349.854C241.928 349.652 242.153 349.364 242.305 348.989C242.461 348.612 242.539 348.159 242.539 347.632C242.539 347.118 242.463 346.666 242.31 346.275C242.158 345.884 241.934 345.579 241.639 345.36C241.344 345.138 240.98 345.027 240.545 345.027C240.098 345.027 239.725 345.143 239.427 345.375C239.129 345.604 238.903 345.915 238.751 346.31C238.602 346.704 238.527 347.145 238.527 347.632C238.527 348.133 238.603 348.572 238.756 348.95C238.908 349.327 239.134 349.622 239.432 349.835C239.733 350.047 240.105 350.153 240.545 350.153ZM248.222 351.669C247.738 351.669 247.3 351.58 246.909 351.401C246.518 351.218 246.208 350.955 245.979 350.61C245.754 350.265 245.641 349.843 245.641 349.342C245.641 348.911 245.724 348.557 245.89 348.278C246.056 348 246.279 347.78 246.561 347.617C246.843 347.455 247.158 347.332 247.506 347.249C247.854 347.166 248.208 347.103 248.57 347.06C249.027 347.007 249.398 346.964 249.683 346.931C249.968 346.895 250.175 346.837 250.305 346.757C250.434 346.678 250.499 346.548 250.499 346.369V346.335C250.499 345.9 250.376 345.564 250.131 345.325C249.889 345.087 249.527 344.967 249.047 344.967C248.546 344.967 248.152 345.078 247.864 345.3C247.579 345.519 247.381 345.763 247.272 346.031L245.875 345.713C246.041 345.249 246.283 344.875 246.601 344.589C246.922 344.301 247.292 344.092 247.71 343.963C248.127 343.83 248.566 343.764 249.027 343.764C249.332 343.764 249.655 343.801 249.996 343.874C250.341 343.943 250.663 344.072 250.961 344.261C251.263 344.45 251.509 344.72 251.702 345.072C251.894 345.42 251.99 345.872 251.99 346.429V351.5H250.538V350.456H250.479C250.383 350.648 250.238 350.837 250.046 351.023C249.854 351.208 249.607 351.362 249.305 351.485C249.004 351.608 248.643 351.669 248.222 351.669ZM248.545 350.476C248.956 350.476 249.307 350.395 249.599 350.232C249.894 350.07 250.117 349.858 250.27 349.596C250.426 349.331 250.504 349.047 250.504 348.746V347.761C250.451 347.814 250.348 347.864 250.195 347.911C250.046 347.954 249.875 347.992 249.683 348.025C249.491 348.055 249.304 348.083 249.121 348.109C248.939 348.133 248.787 348.152 248.664 348.169C248.376 348.205 248.112 348.267 247.874 348.353C247.638 348.439 247.449 348.563 247.307 348.726C247.168 348.885 247.098 349.097 247.098 349.362C247.098 349.73 247.234 350.009 247.506 350.197C247.777 350.383 248.124 350.476 248.545 350.476ZM255.456 346.966V351.5H253.97V343.864H255.397V345.107H255.491C255.667 344.702 255.942 344.377 256.317 344.132C256.694 343.887 257.17 343.764 257.743 343.764C258.264 343.764 258.72 343.874 259.111 344.092C259.502 344.308 259.805 344.629 260.02 345.057C260.236 345.484 260.344 346.013 260.344 346.643V351.5H258.857V346.822C258.857 346.268 258.713 345.836 258.425 345.524C258.136 345.209 257.74 345.052 257.236 345.052C256.892 345.052 256.585 345.126 256.317 345.276C256.051 345.425 255.841 345.643 255.685 345.932C255.533 346.217 255.456 346.562 255.456 346.966ZM262.337 351.5V343.864H263.824V351.5H262.337ZM263.088 342.685C262.829 342.685 262.607 342.599 262.422 342.427C262.239 342.251 262.148 342.042 262.148 341.8C262.148 341.555 262.239 341.346 262.422 341.174C262.607 340.998 262.829 340.911 263.088 340.911C263.346 340.911 263.567 340.998 263.749 341.174C263.935 341.346 264.028 341.555 264.028 341.8C264.028 342.042 263.935 342.251 263.749 342.427C263.567 342.599 263.346 342.685 263.088 342.685ZM267.191 348.91L267.181 347.095H267.439L270.482 343.864H272.262L268.792 347.543H268.558L267.191 348.91ZM265.824 351.5V341.318H267.31V351.5H265.824ZM270.646 351.5L267.912 347.871L268.936 346.832L272.471 351.5H270.646Z" fill="white"/>
</g>
<rect x="120" y="89.5" width="77" height="77" rx="8" fill="#AFECD8"/>
<g clip-path="url(#clip0_356_8412)">
<path d="M171.844 127.047C171.844 124.919 170.666 123.082 168.942 122.098C170.589 121.679 171.844 120.245 171.844 118.469C171.844 117.863 171.691 117.295 171.428 116.803C170.464 113.452 168.294 110.661 165.408 108.938H151.592C148.702 110.661 146.536 113.452 145.568 116.803C145.309 117.298 145.156 117.866 145.156 118.469C145.156 120.242 146.411 121.675 148.058 122.094C146.334 123.082 145.156 124.919 145.156 127.047C145.156 129.178 146.334 131.012 148.061 131.999C146.407 132.415 145.156 133.845 145.156 135.625V154.688C145.156 156.792 146.864 158.5 148.969 158.5H168.031C170.136 158.5 171.844 156.792 171.844 154.688V135.625C171.844 133.841 170.593 132.411 168.939 131.996C170.666 131.012 171.844 129.178 171.844 127.047Z" fill="white"/>
<path d="M164.219 97.5H152.781C151.729 97.5 150.875 98.354 150.875 99.4062V103.219C150.875 104.271 151.729 105.125 152.781 105.125H164.219C165.271 105.125 166.125 104.271 166.125 103.219V99.4062C166.125 98.354 165.271 97.5 164.219 97.5Z" fill="white"/>
</g>
<g clip-path="url(#clip1_356_8412)">
<path d="M108 129.5H210" stroke="#43C4A8" stroke-width="4" stroke-linecap="round"/>
<path d="M181.5 84H195.5C199.918 84 203.5 87.5817 203.5 92V104" stroke="#43C4A8" stroke-width="4" stroke-linecap="round"/>
<path d="M135.5 83.5H121.5C117.082 83.5 113.5 87.0817 113.5 91.5V103.5" stroke="#43C4A8" stroke-width="4" stroke-linecap="round"/>
<path d="M135.5 174.5H121.5C117.082 174.5 113.5 170.918 113.5 166.5V154.5" stroke="#43C4A8" stroke-width="4" stroke-linecap="round"/>
<path d="M181.5 174.5H195.5C199.918 174.5 203.5 170.918 203.5 166.5V154.5" stroke="#43C4A8" stroke-width="4" stroke-linecap="round"/>
</g>
<defs>
<linearGradient id="paint0_linear_356_8412" x1="158.5" y1="0" x2="158.5" y2="196.5" gradientUnits="userSpaceOnUse">
<stop stop-color="#43C4A8" stop-opacity="0"/>
<stop offset="1" stop-color="#43C4A8" stop-opacity="0.06"/>
</linearGradient>
<linearGradient id="paint1_linear_356_8412" x1="158.5" y1="399" x2="158.5" y2="202.5" gradientUnits="userSpaceOnUse">
<stop stop-color="#43C4A8" stop-opacity="0"/>
<stop offset="1" stop-color="#43C4A8" stop-opacity="0.06"/>
</linearGradient>
<clipPath id="clip0_356_8412">
<rect width="61" height="61" fill="white" transform="translate(128 97.5)"/>
</clipPath>
<clipPath id="clip1_356_8412">
<rect width="102" height="102" fill="white" transform="translate(108 77.5)"/>
</clipPath>
</defs>
</svg>
