<svg width="507" height="507" viewBox="0 0 507 507" fill="none" xmlns="http://www.w3.org/2000/svg">
<g filter="url(#filter0_d_365_8485)">
<rect x="196.625" y="196.625" width="113" height="113" rx="56.5" fill="white" shape-rendering="crispEdges"/>
<path d="M252.729 280.54C251.392 279.556 249.874 278.442 249.611 276.527C249.223 273.697 247.616 271.255 245.205 269.825C244.161 269.21 243.51 269.525 242.047 270.527C241.048 271.213 239.943 272 238.465 271.929C235.618 271.8 233.844 270.542 232.127 269.326C230.288 268.019 228.384 266.67 224.751 266.433C223.662 266.362 222.496 265.911 221.351 265.275C220.125 264.591 218.942 263.701 217.893 262.808C222.153 278.283 236.314 289.699 253.125 289.699C253.698 289.699 254.255 289.638 254.822 289.613C254.959 288.776 255.08 287.908 255.166 287.075C255.362 285.189 255.4 283.514 255.143 282.954C254.701 281.99 253.743 281.287 252.729 280.54Z" fill="#43C4A8"/>
<path d="M242.884 240.851C243.515 240.952 244.13 241.003 244.723 241.003C246.587 241.003 248.247 240.498 249.596 239.563C251.246 241.338 252.174 243.621 252.174 246.06V251.864H244.158C245.535 253.072 246.844 253.851 248.095 254.386C250.633 255.471 252.916 255.478 254.886 255.448C256.583 255.428 258.205 255.408 259.597 256.114C262.76 257.721 264.397 261.814 265.199 264.783L267.502 260.805L267.096 254.386L266.935 251.864H254.699V246.723L258.028 243.394C259.335 244.282 260.927 244.733 262.637 244.733C265.709 244.733 269.122 243.338 271.767 240.695C277.955 234.505 277.834 223.515 277.826 223.051C277.813 222.373 277.266 221.826 276.588 221.813C276.118 221.81 265.134 221.682 258.944 227.872C254.828 231.988 253.783 237.936 256.265 241.59L254.399 243.457C253.932 241.326 252.893 239.371 251.364 237.757C252.626 235.968 253.138 233.645 252.719 231.014C252.26 228.131 250.746 225.223 248.56 223.036C241.933 216.41 230.159 216.559 229.66 216.551C228.979 216.564 228.434 217.111 228.421 217.79C228.414 218.289 228.283 230.066 234.906 236.692C237.096 238.879 240.001 240.395 242.884 240.851Z" fill="#43C4A8"/>
<path d="M288.438 251.864H269.465L269.626 254.386L270.05 261.025C270.065 261.275 270.007 261.522 269.883 261.736L265.727 268.915C265.497 269.311 265.078 269.545 264.634 269.545C264.551 269.545 264.468 269.538 264.38 269.52C263.847 269.412 263.446 268.975 263.381 268.436C263.108 266.191 261.693 260.006 258.46 258.361C257.625 257.938 256.366 257.95 254.923 257.97C251.841 258.003 247.811 258.044 243.245 254.386C242.375 253.687 241.485 252.858 240.579 251.864H217.813C217.116 251.864 216.551 252.429 216.551 253.125C216.551 254.954 216.73 256.74 216.99 258.498C217.777 259.317 218.89 260.387 220.095 261.36C221.73 262.682 223.531 263.827 224.913 263.916C229.259 264.198 231.557 265.83 233.585 267.268C235.196 268.413 236.47 269.316 238.576 269.409C239.169 269.439 239.875 268.955 240.619 268.446C242.032 267.48 243.961 266.145 246.489 267.656C249.566 269.482 251.614 272.59 252.109 276.184C252.227 277.039 253.153 277.72 254.225 278.507C255.395 279.37 256.722 280.346 257.436 281.902C257.92 282.959 257.897 284.944 257.728 286.826C257.643 287.769 257.524 288.665 257.408 289.424C275.561 287.295 289.699 271.841 289.699 253.125C289.699 252.429 289.134 251.864 288.438 251.864Z" fill="#43C4A8"/>
</g>
<rect x="141.625" y="141.625" width="223" height="223" rx="111.5" stroke="#EBEBEB" stroke-width="2"/>
<rect x="85.375" y="85.375" width="335.5" height="335.5" rx="167.75" stroke="#EBEBEB" stroke-width="2"/>
<rect x="1" y="1" width="504.25" height="504.25" rx="252.125" stroke="#EBEBEB" stroke-width="2"/>
<defs>
<filter id="filter0_d_365_8485" x="176.625" y="176.625" width="153" height="153" filterUnits="userSpaceOnUse" color-interpolation-filters="sRGB">
<feFlood flood-opacity="0" result="BackgroundImageFix"/>
<feColorMatrix in="SourceAlpha" type="matrix" values="0 0 0 0 0 0 0 0 0 0 0 0 0 0 0 0 0 0 127 0" result="hardAlpha"/>
<feOffset/>
<feGaussianBlur stdDeviation="10"/>
<feComposite in2="hardAlpha" operator="out"/>
<feColorMatrix type="matrix" values="0 0 0 0 0.262745 0 0 0 0 0.768627 0 0 0 0 0.658824 0 0 0 0.2 0"/>
<feBlend mode="normal" in2="BackgroundImageFix" result="effect1_dropShadow_365_8485"/>
<feBlend mode="normal" in="SourceGraphic" in2="effect1_dropShadow_365_8485" result="shape"/>
</filter>
</defs>
</svg>
