<svg width="80" height="80" viewBox="0 0 80 80" fill="none" xmlns="http://www.w3.org/2000/svg">
<g opacity="0.5" clip-path="url(#clip0_452_939)">
<path d="M50.1543 25.1558H7.65509C6.29246 25.1558 5.21639 26.315 5.31764 27.6745L9.06756 77.8297C9.15975 79.0531 10.1785 79.9984 11.405 79.9984H46.4043C47.6309 79.9984 48.6496 79.0531 48.7418 77.8297L52.4917 27.6745C52.593 26.3153 51.5174 25.1558 50.1543 25.1558Z" fill="#7ADBC3"/>
<path d="M31.2484 2.3437V7.49985C31.2484 8.79358 30.1985 9.84356 28.9047 9.84356C27.611 9.84356 26.561 8.79358 26.561 7.49985V2.3437C26.561 1.04998 27.611 0 28.9047 0C30.1985 0 31.2484 1.04998 31.2484 2.3437Z" fill="#6A7282"/>
<path d="M45.467 5.15613H12.3426C8.46615 5.15613 5.31152 8.31075 5.31152 12.1872V17.4996C5.31152 18.7934 6.3615 19.8433 7.65523 19.8433H50.1544C51.4481 19.8433 52.4981 18.7934 52.4981 17.4996V12.1872C52.4981 8.31075 49.3435 5.15613 45.467 5.15613Z" fill="#7ADBC3"/>
<path d="M56.812 20.8418L52.498 16.5294H5.30986L0.997448 20.8418C0.558394 21.2825 0.311523 21.8778 0.311523 22.4996V27.4995C0.311523 28.7932 1.3615 29.8432 2.65523 29.8432H55.1542C56.4479 29.8432 57.4979 28.7932 57.4979 27.4995V22.4996C57.4979 21.8778 57.251 21.2825 56.812 20.8418Z" fill="#43C4A8"/>
<path d="M11.4051 65.155C7.35583 65.155 4.06152 68.4493 4.06152 72.4986C4.06152 74.4511 4.81307 76.3104 6.17773 77.7342C9.07377 80.7552 13.7359 80.7558 16.6325 77.7342C17.9972 76.3106 18.7487 74.4513 18.7487 72.4986C18.7487 68.4493 15.4544 65.155 11.4051 65.155Z" fill="#43C4A8"/>
<path d="M41.8859 48.4803L38.1859 52.2787C37.1927 53.2969 35.5586 53.181 34.6813 52.1365L31.072 48.6209C30.1455 47.7178 30.1267 46.2335 31.0298 45.3069C31.8251 44.4898 33.072 44.3788 33.9923 44.982C33.0199 42.1481 30.6886 39.9664 27.7611 39.2258C26.5065 38.9086 25.7471 37.6321 26.0658 36.3774C26.383 35.1259 27.6533 34.3681 28.9049 34.6822C28.908 34.6822 28.9111 34.6822 28.9142 34.6837C34.0563 35.9899 37.7672 40.0836 38.8422 44.9413C39.7484 44.2898 41.0156 44.3601 41.8421 45.1648C42.7702 46.0679 42.789 47.5522 41.8859 48.4803Z" fill="#E9F8FF"/>
<path d="M32.2064 59.8614C31.8919 61.103 30.6315 61.8751 29.3581 61.5566C24.2247 60.2473 20.5235 56.1764 19.4379 51.335C18.5283 51.9674 17.2834 51.886 16.4646 51.0896C15.538 50.1865 15.5177 48.7022 16.4208 47.7756C20.474 43.6164 20.2256 43.821 20.6348 43.5804C21.5674 43.0782 22.5512 43.2245 23.2394 43.7632C23.4035 43.8921 23.2988 43.7996 27.2347 47.6335C28.1628 48.5366 28.1815 50.0209 27.2784 50.9475C26.4706 51.7771 25.2003 51.8787 24.2769 51.2443C25.228 54.0318 27.5132 56.2486 30.5127 57.013C31.7674 57.3317 32.5252 58.6067 32.2064 59.8614Z" fill="#E9F8FF"/>
<path d="M72.6524 79.9984H47.656C43.0244 79.9984 39.6787 75.614 40.8593 71.1627L43.7514 60.2707C44.6905 56.7364 46.7092 53.7083 49.3966 51.5068L54.6012 48.5912C58.1104 47.3703 62.0419 47.3159 65.7073 48.5912L70.9118 51.5068C73.5993 53.7083 75.618 56.7364 76.557 60.2707L79.4492 71.1627C80.6324 75.6233 77.2758 79.9984 72.6524 79.9984Z" fill="#FFC84B"/>
<path d="M71.593 36.2196C64.9105 30.8244 55.3638 30.8524 48.7153 36.2196C46.2468 38.2129 46.2643 41.9767 48.7481 43.9461L58.6979 51.835C59.5484 52.511 60.7573 52.5131 61.6104 51.835L71.5602 43.9461C74.0465 41.9747 74.0589 38.2107 71.593 36.2196Z" fill="#FFB221"/>
<path d="M62.498 46.0929V49.9991H57.8105V46.0929C57.8105 44.7991 58.8605 43.7491 60.1543 43.7491C60.8012 43.7491 61.3871 44.0116 61.8105 44.4366C62.2355 44.8601 62.498 45.446 62.498 46.0929Z" fill="#FA8E09"/>
<path d="M65.8935 53.3692C66.8216 54.9817 67.4982 57.177 67.4982 60.155C67.4982 61.5487 66.2826 62.6581 64.8545 62.48C63.6701 62.3331 62.8155 61.2847 62.8108 60.091C62.7936 56.0739 61.1124 54.5129 60.1546 53.9489C59.1921 54.5161 57.4984 56.0895 57.4984 60.155C57.4984 61.48 56.4 62.5472 55.0641 62.4972C53.7875 62.4487 52.8063 61.3472 52.811 60.0722C52.8235 57.1363 53.4969 54.9661 54.4156 53.3692C52.4094 52.9255 50.7438 52.2427 49.397 51.5068C50.9376 50.2427 52.6985 49.2505 54.6016 48.5912C57.3423 49.3498 62.823 49.3899 65.7076 48.5912C67.6107 49.2505 69.3716 50.2427 70.9122 51.5068C69.5653 52.2427 67.8997 52.9255 65.8935 53.3692Z" fill="#6A7282"/>
<path d="M11.4053 74.9987C12.786 74.9987 13.9053 73.8794 13.9053 72.4987C13.9053 71.1179 12.786 69.9987 11.4053 69.9987C10.0246 69.9987 8.90527 71.1179 8.90527 72.4987C8.90527 73.8794 10.0246 74.9987 11.4053 74.9987Z" fill="#21A890"/>
<path d="M57.4979 22.4996H0.311523C0.311523 21.8778 0.558394 21.2825 0.997448 20.8418L5.30986 16.5294H52.498L56.812 20.8418C57.251 21.2825 57.4979 21.8778 57.4979 22.4996Z" fill="#21A890"/>
</g>
<defs>
<clipPath id="clip0_452_939">
<rect width="80" height="80" fill="white"/>
</clipPath>
</defs>
</svg>
