<svg width="28" height="29" viewBox="0 0 28 29" fill="none" xmlns="http://www.w3.org/2000/svg">
<g clip-path="url(#clip0_112_8121)">
<path d="M12.0896 5.54695C10.6878 3.55299 8.97078 3.99281 7.83462 4.28386C7.71486 4.31454 7.59758 4.34459 7.48662 4.37018C7.62949 3.14606 8.28443 2.19414 9.47719 1.47126L9.00392 0.690377C8.37319 1.07261 7.86312 1.51889 7.47396 2.02631C7.32915 1.56548 7.1028 1.17865 6.79466 0.870517C6.20141 0.277268 5.31854 -0.0155007 4.17082 0.000632066L3.72692 0.00683909L3.72071 0.450764C3.70466 1.59854 3.99735 2.48133 4.59065 3.07461C5.07904 3.563 5.76424 3.8468 6.63131 3.92328C6.60323 4.07309 6.58207 4.22622 6.56746 4.38243C6.44084 4.35443 6.30483 4.31962 6.1654 4.28391C5.02919 3.99289 3.31214 3.55304 1.91048 5.547C1.24064 6.49987 1.03821 7.78951 1.3251 9.27654C1.66392 11.0329 2.68255 12.854 3.69457 13.5126C4.92799 14.3153 5.96869 13.9362 6.59046 13.7097C6.74115 13.6548 6.92867 13.5865 7.00007 13.5865C7.07146 13.5865 7.25899 13.6548 7.40968 13.7097C7.74663 13.8324 8.20658 14 8.75362 14C9.21597 14 9.74054 13.8803 10.3056 13.5126C11.3176 12.854 12.3362 11.0329 12.675 9.27654C12.9618 7.78946 12.7594 6.49982 12.0896 5.54695Z" fill="#43C4A8"/>
</g>
<path d="M1 27L25 3" stroke="#6A7282" stroke-width="2" stroke-linecap="round"/>
<path d="M16.6135 18.8235V19.5859C16.6135 19.687 16.6264 19.7852 16.6506 19.8789H24.3494C24.3736 19.7852 24.3865 19.687 24.3865 19.5859V18.8235C24.3865 17.9907 24.0252 17.1899 23.4099 16.6367H17.5901C16.9748 17.1899 16.6135 17.9907 16.6135 18.8235Z" fill="#FA8E09"/>
<path d="M18.4396 14H22.5603V15.7579H18.4396V14Z" fill="#FA8E09"/>
<path d="M16.6135 21.0509V21.8908C16.6135 22.1677 16.71 22.4224 16.8712 22.6232C16.71 22.824 16.6135 23.0787 16.6135 23.3556V24.1956C16.6135 24.4725 16.71 24.7272 16.8712 24.928C16.71 25.1287 16.6135 25.3835 16.6135 25.6604V28.9999H24.3865V25.6605C24.3865 25.3836 24.29 25.1288 24.1288 24.928C24.29 24.7273 24.3865 24.4725 24.3865 24.1956V23.3557C24.3865 23.0788 24.29 22.824 24.1288 22.6233C24.29 22.4225 24.3865 22.1677 24.3865 21.8908V21.0509C24.3865 20.9498 24.3736 20.8516 24.3494 20.7579H16.6506C16.6264 20.8515 16.6135 20.9497 16.6135 21.0509Z" fill="#FA8E09"/>
<defs>
<clipPath id="clip0_112_8121">
<rect width="14" height="14" fill="white"/>
</clipPath>
</defs>
</svg>
