<svg width="24" height="24" viewBox="0 0 24 24" fill="none" xmlns="http://www.w3.org/2000/svg">
<g clip-path="url(#clip0_112_8122)">
<path d="M12.8906 6.59692H14.2969V7.99535H12.8906V6.59692Z" fill="#43C4A8"/>
<path d="M17.0156 3.90674H18.4219V5.30516H17.0156V3.90674Z" fill="#43C4A8"/>
<path d="M7.82812 1.07971H9.23438V2.47813H7.82812V1.07971Z" fill="#43C4A8"/>
<path d="M8.76445 9.29095C10.2523 9.29095 11.4585 8.08481 11.4585 6.59695C11.4585 5.1091 10.2523 3.90295 8.76445 3.90295C7.2766 3.90295 6.07045 5.1091 6.07045 6.59695C6.07045 8.08481 7.2766 9.29095 8.76445 9.29095Z" fill="#43C4A8"/>
<path d="M13.8161 4.78444C15.1373 4.78444 16.2083 3.7134 16.2083 2.39222C16.2083 1.07103 15.1373 0 13.8161 0C12.4949 0 11.4239 1.07103 11.4239 2.39222C11.4239 3.7134 12.4949 4.78444 13.8161 4.78444Z" fill="#43C4A8"/>
<path d="M17.5081 19.6726L19.0283 11.692C18.9775 11.6503 18.9245 11.6038 18.8659 11.5524C18.5117 11.2411 18.0267 10.8149 17.1215 10.8149C16.2164 10.8149 15.7313 11.2412 15.3772 11.5524C15.0928 11.8023 14.9361 11.9399 14.561 11.9399C14.1859 11.9399 14.0292 11.8023 13.7448 11.5524C13.3906 11.2412 12.9056 10.8149 12.0004 10.8149C11.0952 10.8149 10.6102 11.2412 10.256 11.5524C9.97158 11.8023 9.81492 11.9399 9.43983 11.9399C9.06464 11.9399 8.90794 11.8023 8.62345 11.5523C8.26926 11.2411 7.78415 10.8149 6.8789 10.8149C5.97365 10.8149 5.48859 11.2411 5.1344 11.5523C5.07572 11.6039 5.02261 11.6504 4.97175 11.6922L6.4919 19.6727L17.5081 19.6726ZM10.0522 14.7257H11.4585V16.1241H10.0522V14.7257ZM7.64597 16.6241H9.05222V18.0225H7.64597V16.6241Z" fill="#43C4A8"/>
<path d="M23.9942 8.74829H21.0206L18.6718 21.0789H5.32819L2.97942 8.74829H0.00576401L2.64314 22.5938H1.11609V24H22.8839V22.5938H21.3569L23.9942 8.74829Z" fill="#6A7282"/>
</g>
<defs>
<clipPath id="clip0_112_8122">
<rect width="24" height="24" fill="white"/>
</clipPath>
</defs>
</svg>
