<svg width="24" height="24" viewBox="0 0 24 24" fill="none" xmlns="http://www.w3.org/2000/svg">
<g clip-path="url(#clip0_115_8132)">
<path d="M0.672279 6.09863V7.50488H2.35959L2.49098 9.44668H21.5091L21.6404 7.50488H23.3277V6.09863H0.672279Z" fill="#43C4A8"/>
<path d="M3.47564 24H20.5244L21.4139 10.8529H2.58614L3.47564 24Z" fill="#43C4A8"/>
<path d="M17.6134 2.44627C17.6124 2.44627 17.6114 2.44627 17.6104 2.44627C17.4488 2.44645 17.3067 2.33845 17.2719 2.18062C16.9972 0.933375 15.8859 0 14.5561 0C13.6818 0 12.9021 0.403641 12.3924 1.03458C12.2004 1.27223 11.8348 1.27223 11.6429 1.03458C11.1331 0.403641 10.3534 0 9.47911 0C8.14931 0 7.03805 0.933375 6.76336 2.18062C6.72863 2.33845 6.5865 2.44645 6.42487 2.44627C6.42389 2.44627 6.42291 2.44627 6.42187 2.44627C5.06892 2.44627 3.94205 3.41241 3.69239 4.69233H20.3429C20.0932 3.41241 18.9663 2.44627 17.6134 2.44627Z" fill="#6A7282"/>
</g>
<defs>
<clipPath id="clip0_115_8132">
<rect width="24" height="24" fill="white"/>
</clipPath>
</defs>
</svg>
