<svg width="24" height="24" viewBox="0 0 24 24" fill="none" xmlns="http://www.w3.org/2000/svg">
<g clip-path="url(#clip0_115_8138)">
<path d="M20.4853 3.5147C18.2188 1.24824 15.2053 0 12 0C8.7947 0 5.78122 1.24824 3.5147 3.5147C1.24824 5.78122 0 8.7947 0 12C0 13.9242 0.466609 15.8376 1.34933 17.5334C1.94626 18.6803 2.73416 19.7304 3.66601 20.6315H1.84739V22.0461H6.36712V17.7646H4.95258V19.8964C2.72096 17.899 1.41454 15.019 1.41454 12C1.41454 6.16314 6.16314 1.41454 12 1.41454C17.8369 1.41454 22.5855 6.16314 22.5855 12C22.5855 17.8369 17.8369 22.5855 12 22.5855V24C15.2053 24 18.2188 22.7518 20.4853 20.4853C22.7518 18.2188 24 15.2053 24 12C24 8.7947 22.7518 5.78122 20.4853 3.5147Z" fill="#6A7282"/>
<path d="M15.9741 18.5453V11.9806L17.5408 13.1992L20.5296 9.52887L15.7434 5.45476H13.2055L13.1774 6.1327C13.1511 6.76556 12.6339 7.26131 12 7.26131C11.366 7.26131 10.8489 6.76556 10.8226 6.13265L10.7945 5.45471H8.30603L3.46213 9.53066L6.5122 13.1946L8.07305 11.9806V18.5453H15.9741V18.5453Z" fill="#43C4A8"/>
</g>
<defs>
<clipPath id="clip0_115_8138">
<rect width="24" height="24" fill="white"/>
</clipPath>
</defs>
</svg>
