<svg width="24" height="24" viewBox="0 0 24 24" fill="none" xmlns="http://www.w3.org/2000/svg">
<path d="M7.07812 12C7.07812 9.28172 9.28172 7.07812 12 7.07812V9.82772L16.9139 4.91386L12 0V2.74158C6.88673 2.74158 2.74158 6.88673 2.74158 12C2.74158 14.3503 3.61781 16.4956 5.06081 18.1283L8.13797 15.0512C7.47441 14.2125 7.07812 13.1526 7.07812 12Z" fill="#43C4A8"/>
<path d="M18.9392 5.8717L15.862 8.94881C16.5256 9.78759 16.9219 10.8475 16.9219 12C16.9219 14.7183 14.7183 16.9219 12 16.9219V14.1723L7.08614 19.0862L12 24V21.2585C17.1133 21.2585 21.2584 17.1133 21.2584 12C21.2584 9.64974 20.3822 7.50441 18.9392 5.8717Z" fill="#6A7282"/>
</svg>
